<?xml version="1.0" standalone="no" ?>
<!DOCTYPE svg PUBLIC "-//W3C//DTD SVG 1.1//EN" "http://www.w3.org/Graphics/SVG/1.1/DTD/svg11.dtd">
<svg width="2400px" height="3200px" xmlns="http://www.w3.org/2000/svg" version="1.1" >
	<circle cx="784.6" cy="2064.43" r="5" fill="none" stroke-width="1" stroke="rgb(0,255,0)" />
	<circle cx="815.268" cy="2065.07" r="5" fill="none" stroke-width="1" stroke="rgb(0,255,0)" />
	<circle cx="844.64" cy="2065.09" r="5" fill="none" stroke-width="1" stroke="rgb(0,255,0)" />
	<circle cx="875.044" cy="2065.19" r="5" fill="none" stroke-width="1" stroke="rgb(0,255,0)" />
	<circle cx="905.283" cy="2065.2" r="5" fill="none" stroke-width="1" stroke="rgb(0,255,0)" />
	<circle cx="934.968" cy="2064.94" r="5" fill="none" stroke-width="1" stroke="rgb(0,255,0)" />
	<circle cx="964.773" cy="2061.68" r="5" fill="none" stroke-width="1" stroke="rgb(0,255,0)" />
	<circle cx="995.27" cy="2054.68" r="5" fill="none" stroke-width="1" stroke="rgb(0,255,0)" />
	<circle cx="1025.03" cy="2042.19" r="5" fill="none" stroke-width="1" stroke="rgb(0,255,0)" />
	<circle cx="1054.5" cy="2030.16" r="5" fill="none" stroke-width="1" stroke="rgb(0,255,0)" />
	<circle cx="1079.22" cy="2019.82" r="5" fill="none" stroke-width="1" stroke="rgb(0,255,0)" />
	<circle cx="1102.05" cy="2014.14" r="5" fill="none" stroke-width="1" stroke="rgb(0,255,0)" />
	<circle cx="1127.15" cy="2010.88" r="5" fill="none" stroke-width="1" stroke="rgb(0,255,0)" />
	<circle cx="1160.17" cy="2008.38" r="5" fill="none" stroke-width="1" stroke="rgb(0,255,0)" />
	<circle cx="1182.12" cy="2007.34" r="5" fill="none" stroke-width="1" stroke="rgb(0,255,0)" />
	<circle cx="1208.36" cy="2006.13" r="5" fill="none" stroke-width="1" stroke="rgb(0,255,0)" />
	<circle cx="1235.62" cy="2005.21" r="5" fill="none" stroke-width="1" stroke="rgb(0,255,0)" />
	<circle cx="1271.6" cy="2006.36" r="5" fill="none" stroke-width="1" stroke="rgb(0,255,0)" />
	<circle cx="1306.97" cy="2007.95" r="5" fill="none" stroke-width="1" stroke="rgb(0,255,0)" />
	<circle cx="1340.48" cy="2011.69" r="5" fill="none" stroke-width="1" stroke="rgb(0,255,0)" />
	<circle cx="1369.22" cy="2014.33" r="5" fill="none" stroke-width="1" stroke="rgb(0,255,0)" />
	<circle cx="1398.31" cy="2017.16" r="5" fill="none" stroke-width="1" stroke="rgb(0,255,0)" />
	<circle cx="1430.23" cy="2021.35" r="5" fill="none" stroke-width="1" stroke="rgb(0,255,0)" />
	<circle cx="1467" cy="2025.97" r="5" fill="none" stroke-width="1" stroke="rgb(0,255,0)" />
	<circle cx="1492.77" cy="2029.25" r="5" fill="none" stroke-width="1" stroke="rgb(0,255,0)" />
	<circle cx="1519.77" cy="2032" r="5" fill="none" stroke-width="1" stroke="rgb(0,255,0)" />
	<circle cx="1546.77" cy="2034.07" r="5" fill="none" stroke-width="1" stroke="rgb(0,255,0)" />
	<circle cx="1572.31" cy="2036.4" r="5" fill="none" stroke-width="1" stroke="rgb(0,255,0)" />
	<circle cx="1598.07" cy="2038.01" r="5" fill="none" stroke-width="1" stroke="rgb(0,255,0)" />
	<circle cx="1625.75" cy="2040.48" r="5" fill="none" stroke-width="1" stroke="rgb(0,255,0)" />
	<circle cx="1650.01" cy="2043.52" r="5" fill="none" stroke-width="1" stroke="rgb(0,255,0)" />
	<circle cx="1678.28" cy="2045.38" r="5" fill="none" stroke-width="1" stroke="rgb(0,255,0)" />
	<circle cx="1705.72" cy="2047.75" r="5" fill="none" stroke-width="1" stroke="rgb(0,255,0)" />
	<circle cx="1732.78" cy="2049.81" r="5" fill="none" stroke-width="1" stroke="rgb(0,255,0)" />
	<circle cx="1764.23" cy="2051.61" r="5" fill="none" stroke-width="1" stroke="rgb(0,255,0)" />
	<circle cx="1792.09" cy="2053.43" r="5" fill="none" stroke-width="1" stroke="rgb(0,255,0)" />
	<circle cx="1820.7" cy="2054.02" r="5" fill="none" stroke-width="1" stroke="rgb(0,255,0)" />
	<circle cx="1848.6" cy="2051.3" r="5" fill="none" stroke-width="1" stroke="rgb(0,255,0)" />
	<circle cx="1878.7" cy="2047.3" r="5" fill="none" stroke-width="1" stroke="rgb(0,255,0)" />
	<circle cx="1906" cy="2041.2" r="5" fill="none" stroke-width="1" stroke="rgb(0,255,0)" />
	<circle cx="1931.4" cy="2034.3" r="5" fill="none" stroke-width="1" stroke="rgb(0,255,0)" />
	<circle cx="1958" cy="2024.4" r="5" fill="none" stroke-width="1" stroke="rgb(0,255,0)" />
	<circle cx="1983" cy="2010" r="5" fill="none" stroke-width="1" stroke="rgb(0,255,0)" />
	<circle cx="2004.2" cy="1992.9" r="5" fill="none" stroke-width="1" stroke="rgb(0,255,0)" />
	<circle cx="2022.49" cy="1971.9" r="5" fill="none" stroke-width="1" stroke="rgb(0,255,0)" />
	<circle cx="2038.84" cy="1944.87" r="5" fill="none" stroke-width="1" stroke="rgb(0,255,0)" />
	<circle cx="2053.17" cy="1915.33" r="5" fill="none" stroke-width="1" stroke="rgb(0,255,0)" />
	<circle cx="2064.14" cy="1886.85" r="5" fill="none" stroke-width="1" stroke="rgb(0,255,0)" />
	<circle cx="2076.1" cy="1854.89" r="5" fill="none" stroke-width="1" stroke="rgb(0,255,0)" />
	<circle cx="2084.78" cy="1826.73" r="5" fill="none" stroke-width="1" stroke="rgb(0,255,0)" />
	<circle cx="2093.3" cy="1797.52" r="5" fill="none" stroke-width="1" stroke="rgb(0,255,0)" />
	<circle cx="2101.78" cy="1766.78" r="5" fill="none" stroke-width="1" stroke="rgb(0,255,0)" />
	<circle cx="2106.93" cy="1733.16" r="5" fill="none" stroke-width="1" stroke="rgb(0,255,0)" />
	<circle cx="2111.22" cy="1700.97" r="5" fill="none" stroke-width="1" stroke="rgb(0,255,0)" />
	<circle cx="2118.13" cy="1661.09" r="5" fill="none" stroke-width="1" stroke="rgb(0,255,0)" />
	<circle cx="2126.8" cy="1615.52" r="5" fill="none" stroke-width="1" stroke="rgb(0,255,0)" />
	<circle cx="2136.1" cy="1564.7" r="5" fill="none" stroke-width="1" stroke="rgb(0,255,0)" />
	<circle cx="2157.7" cy="1474.2" r="5" fill="none" stroke-width="1" stroke="rgb(0,255,0)" />
	<circle cx="2164.6" cy="1433.1" r="5" fill="none" stroke-width="1" stroke="rgb(0,255,0)" />
	<circle cx="2170.6" cy="1392.1" r="5" fill="none" stroke-width="1" stroke="rgb(0,255,0)" />
	<circle cx="2177.1" cy="1347.1" r="5" fill="none" stroke-width="1" stroke="rgb(0,255,0)" />
	<circle cx="2180.2" cy="1311.6" r="5" fill="none" stroke-width="1" stroke="rgb(0,255,0)" />
	<circle cx="2183.9" cy="1283.5" r="5" fill="none" stroke-width="1" stroke="rgb(0,255,0)" />
	<circle cx="2189.9" cy="1249.8" r="5" fill="none" stroke-width="1" stroke="rgb(0,255,0)" />
	<circle cx="2196.2" cy="1220.7" r="5" fill="none" stroke-width="1" stroke="rgb(0,255,0)" />
	<circle cx="2202.6" cy="1186" r="5" fill="none" stroke-width="1" stroke="rgb(0,255,0)" />
	<circle cx="2208.3" cy="1155.5" r="5" fill="none" stroke-width="1" stroke="rgb(0,255,0)" />
	<circle cx="2216.6" cy="1120.2" r="5" fill="none" stroke-width="1" stroke="rgb(0,255,0)" />
	<circle cx="2225.2" cy="1092.1" r="5" fill="none" stroke-width="1" stroke="rgb(0,255,0)" />
	<circle cx="2234.7" cy="1060.7" r="5" fill="none" stroke-width="1" stroke="rgb(0,255,0)" />
	<circle cx="2242.3" cy="1030.2" r="5" fill="none" stroke-width="1" stroke="rgb(0,255,0)" />
	<circle cx="2247.1" cy="1007.4" r="5" fill="none" stroke-width="1" stroke="rgb(0,255,0)" />
	<circle cx="2253.5" cy="976.7" r="5" fill="none" stroke-width="1" stroke="rgb(0,255,0)" />
	<circle cx="2258.3" cy="947" r="5" fill="none" stroke-width="1" stroke="rgb(0,255,0)" />
	<circle cx="2264.6" cy="915.5" r="5" fill="none" stroke-width="1" stroke="rgb(0,255,0)" />
	<circle cx="2270.5" cy="887.5" r="5" fill="none" stroke-width="1" stroke="rgb(0,255,0)" />
	<circle cx="2282.09" cy="854.23" r="5" fill="none" stroke-width="1" stroke="rgb(0,255,0)" />
	<circle cx="2292.8" cy="821.7" r="5" fill="none" stroke-width="1" stroke="rgb(0,255,0)" />
	<circle cx="2303.71" cy="788.45" r="5" fill="none" stroke-width="1" stroke="rgb(0,255,0)" />
	<circle cx="2311.5" cy="754.4" r="5" fill="none" stroke-width="1" stroke="rgb(0,255,0)" />
	<circle cx="2316.3" cy="729.6" r="5" fill="none" stroke-width="1" stroke="rgb(0,255,0)" />
	<circle cx="2322.41" cy="695.54" r="5" fill="none" stroke-width="1" stroke="rgb(0,255,0)" />
	<circle cx="2329" cy="658.92" r="5" fill="none" stroke-width="1" stroke="rgb(0,255,0)" />
	<circle cx="2331.8" cy="628.82" r="5" fill="none" stroke-width="1" stroke="rgb(0,255,0)" />
	<circle cx="2332.1" cy="612.93" r="5" fill="none" stroke-width="1" stroke="rgb(0,255,0)" />
	<circle cx="2331.8" cy="588.5" r="5" fill="none" stroke-width="1" stroke="rgb(0,255,0)" />
	<circle cx="2332.1" cy="560.3" r="5" fill="none" stroke-width="1" stroke="rgb(0,255,0)" />
	<circle cx="2332.1" cy="540.97" r="5" fill="none" stroke-width="1" stroke="rgb(0,255,0)" />
	<circle cx="2332.9" cy="516.99" r="5" fill="none" stroke-width="1" stroke="rgb(0,255,0)" />
	<circle cx="2333.1" cy="490.7" r="5" fill="none" stroke-width="1" stroke="rgb(0,255,0)" />
	<circle cx="2333.3" cy="471.7" r="5" fill="none" stroke-width="1" stroke="rgb(0,255,0)" />
	<circle cx="2333.2" cy="450.9" r="5" fill="none" stroke-width="1" stroke="rgb(0,255,0)" />
	<circle cx="2333.4" cy="427" r="5" fill="none" stroke-width="1" stroke="rgb(0,255,0)" />
	<circle cx="2330.5" cy="402" r="5" fill="none" stroke-width="1" stroke="rgb(0,255,0)" />
	<circle cx="2324.8" cy="378.8" r="5" fill="none" stroke-width="1" stroke="rgb(0,255,0)" />
	<circle cx="2316.2" cy="353.6" r="5" fill="none" stroke-width="1" stroke="rgb(0,255,0)" />
	<circle cx="2303.6" cy="326.1" r="5" fill="none" stroke-width="1" stroke="rgb(0,255,0)" />
	<circle cx="2286.5" cy="297.6" r="5" fill="none" stroke-width="1" stroke="rgb(0,255,0)" />
	<circle cx="2266.79" cy="269.719" r="5" fill="none" stroke-width="1" stroke="rgb(0,255,0)" />
	<circle cx="2246.81" cy="249.557" r="5" fill="none" stroke-width="1" stroke="rgb(0,255,0)" />
	<circle cx="2222" cy="228.6" r="5" fill="none" stroke-width="1" stroke="rgb(0,255,0)" />
	<circle cx="2190.2" cy="212.3" r="5" fill="none" stroke-width="1" stroke="rgb(0,255,0)" />
	<circle cx="2155.3" cy="204.2" r="5" fill="none" stroke-width="1" stroke="rgb(0,255,0)" />
	<circle cx="2121.7" cy="201.5" r="5" fill="none" stroke-width="1" stroke="rgb(0,255,0)" />
	<circle cx="2094.05" cy="201.252" r="5" fill="none" stroke-width="1" stroke="rgb(0,255,0)" />
	<circle cx="2063.08" cy="200.796" r="5" fill="none" stroke-width="1" stroke="rgb(0,255,0)" />
	<circle cx="2032.37" cy="200.067" r="5" fill="none" stroke-width="1" stroke="rgb(0,255,0)" />
	<circle cx="1997.56" cy="201.788" r="5" fill="none" stroke-width="1" stroke="rgb(0,255,0)" />
	<circle cx="1963.77" cy="204.557" r="5" fill="none" stroke-width="1" stroke="rgb(0,255,0)" />
	<circle cx="1929" cy="206.1" r="5" fill="none" stroke-width="1" stroke="rgb(0,255,0)" />
	<circle cx="1898.1" cy="209" r="5" fill="none" stroke-width="1" stroke="rgb(0,255,0)" />
	<circle cx="1864.89" cy="213.813" r="5" fill="none" stroke-width="1" stroke="rgb(0,255,0)" />
	<circle cx="1830.36" cy="220.362" r="5" fill="none" stroke-width="1" stroke="rgb(0,255,0)" />
	<circle cx="1792.7" cy="224.764" r="5" fill="none" stroke-width="1" stroke="rgb(0,255,0)" />
	<circle cx="1752.6" cy="228.1" r="5" fill="none" stroke-width="1" stroke="rgb(0,255,0)" />
	<circle cx="1716.5" cy="232.5" r="5" fill="none" stroke-width="1" stroke="rgb(0,255,0)" />
	<circle cx="1679.2" cy="238.6" r="5" fill="none" stroke-width="1" stroke="rgb(0,255,0)" />
	<circle cx="1644.3" cy="244" r="5" fill="none" stroke-width="1" stroke="rgb(0,255,0)" />
	<circle cx="1598.8" cy="249" r="5" fill="none" stroke-width="1" stroke="rgb(0,255,0)" />
	<circle cx="1538.47" cy="257.116" r="5" fill="none" stroke-width="1" stroke="rgb(0,255,0)" />
	<circle cx="1481.09" cy="258.822" r="5" fill="none" stroke-width="1" stroke="rgb(0,255,0)" />
	<circle cx="1428.89" cy="259.412" r="5" fill="none" stroke-width="1" stroke="rgb(0,255,0)" />
	<circle cx="1385.38" cy="258.752" r="5" fill="none" stroke-width="1" stroke="rgb(0,255,0)" />
	<circle cx="1323.21" cy="256.149" r="5" fill="none" stroke-width="1" stroke="rgb(0,255,0)" />
	<circle cx="1273.24" cy="249.659" r="5" fill="none" stroke-width="1" stroke="rgb(0,255,0)" />
	<circle cx="1224.22" cy="246.193" r="5" fill="none" stroke-width="1" stroke="rgb(0,255,0)" />
	<circle cx="1163.64" cy="246.227" r="5" fill="none" stroke-width="1" stroke="rgb(0,255,0)" />
	<circle cx="1127.18" cy="248.176" r="5" fill="none" stroke-width="1" stroke="rgb(0,255,0)" />
	<circle cx="1076.32" cy="254.423" r="5" fill="none" stroke-width="1" stroke="rgb(0,255,0)" />
	<circle cx="1010.78" cy="270.275" r="5" fill="none" stroke-width="1" stroke="rgb(0,255,0)" />
	<circle cx="957.29" cy="286.317" r="5" fill="none" stroke-width="1" stroke="rgb(0,255,0)" />
	<circle cx="920.501" cy="293.228" r="5" fill="none" stroke-width="1" stroke="rgb(0,255,0)" />
	<circle cx="872.533" cy="297.811" r="5" fill="none" stroke-width="1" stroke="rgb(0,255,0)" />
	<circle cx="809.5" cy="300.7" r="5" fill="none" stroke-width="1" stroke="rgb(0,255,0)" />
	<circle cx="760.9" cy="298.5" r="5" fill="none" stroke-width="1" stroke="rgb(0,255,0)" />
	<circle cx="709.483" cy="296.92" r="5" fill="none" stroke-width="1" stroke="rgb(0,255,0)" />
	<circle cx="651.491" cy="299.213" r="5" fill="none" stroke-width="1" stroke="rgb(0,255,0)" />
	<circle cx="614.292" cy="301.884" r="5" fill="none" stroke-width="1" stroke="rgb(0,255,0)" />
	<circle cx="562.688" cy="311.008" r="5" fill="none" stroke-width="1" stroke="rgb(0,255,0)" />
	<circle cx="512.815" cy="323.165" r="5" fill="none" stroke-width="1" stroke="rgb(0,255,0)" />
	<circle cx="471.683" cy="336.95" r="5" fill="none" stroke-width="1" stroke="rgb(0,255,0)" />
	<circle cx="418.5" cy="358" r="5" fill="none" stroke-width="1" stroke="rgb(0,255,0)" />
	<circle cx="383.2" cy="380.7" r="5" fill="none" stroke-width="1" stroke="rgb(0,255,0)" />
	<circle cx="345.7" cy="414.9" r="5" fill="none" stroke-width="1" stroke="rgb(0,255,0)" />
	<circle cx="308.5" cy="461.2" r="5" fill="none" stroke-width="1" stroke="rgb(0,255,0)" />
	<circle cx="277.9" cy="517" r="5" fill="none" stroke-width="1" stroke="rgb(0,255,0)" />
	<circle cx="255" cy="566.7" r="5" fill="none" stroke-width="1" stroke="rgb(0,255,0)" />
	<circle cx="237.318" cy="618.134" r="5" fill="none" stroke-width="1" stroke="rgb(0,255,0)" />
	<circle cx="220.172" cy="667.232" r="5" fill="none" stroke-width="1" stroke="rgb(0,255,0)" />
	<circle cx="203.066" cy="719.92" r="5" fill="none" stroke-width="1" stroke="rgb(0,255,0)" />
	<circle cx="188.228" cy="774.326" r="5" fill="none" stroke-width="1" stroke="rgb(0,255,0)" />
	<circle cx="178.6" cy="815.7" r="5" fill="none" stroke-width="1" stroke="rgb(0,255,0)" />
	<circle cx="171.296" cy="864.148" r="5" fill="none" stroke-width="1" stroke="rgb(0,255,0)" />
	<circle cx="167.182" cy="908.383" r="5" fill="none" stroke-width="1" stroke="rgb(0,255,0)" />
	<circle cx="165" cy="957.4" r="5" fill="none" stroke-width="1" stroke="rgb(0,255,0)" />
	<circle cx="162.487" cy="1005.26" r="5" fill="none" stroke-width="1" stroke="rgb(0,255,0)" />
	<circle cx="161.655" cy="1055.66" r="5" fill="none" stroke-width="1" stroke="rgb(0,255,0)" />
	<circle cx="163.078" cy="1114.54" r="5" fill="none" stroke-width="1" stroke="rgb(0,255,0)" />
	<circle cx="169.5" cy="1156" r="5" fill="none" stroke-width="1" stroke="rgb(0,255,0)" />
	<circle cx="179.4" cy="1207.1" r="5" fill="none" stroke-width="1" stroke="rgb(0,255,0)" />
	<circle cx="192.881" cy="1256.37" r="5" fill="none" stroke-width="1" stroke="rgb(0,255,0)" />
	<circle cx="215.982" cy="1306.88" r="5" fill="none" stroke-width="1" stroke="rgb(0,255,0)" />
	<circle cx="234.911" cy="1346.27" r="5" fill="none" stroke-width="1" stroke="rgb(0,255,0)" />
	<circle cx="259.606" cy="1398.84" r="5" fill="none" stroke-width="1" stroke="rgb(0,255,0)" />
	<circle cx="281.939" cy="1452.74" r="5" fill="none" stroke-width="1" stroke="rgb(0,255,0)" />
	<circle cx="302.47" cy="1506.15" r="5" fill="none" stroke-width="1" stroke="rgb(0,255,0)" />
	<circle cx="318.995" cy="1546.74" r="5" fill="none" stroke-width="1" stroke="rgb(0,255,0)" />
	<circle cx="338.31" cy="1586.41" r="5" fill="none" stroke-width="1" stroke="rgb(0,255,0)" />
	<circle cx="362.758" cy="1632.66" r="5" fill="none" stroke-width="1" stroke="rgb(0,255,0)" />
	<circle cx="385.696" cy="1674.94" r="5" fill="none" stroke-width="1" stroke="rgb(0,255,0)" />
	<circle cx="415.781" cy="1725.51" r="5" fill="none" stroke-width="1" stroke="rgb(0,255,0)" />
	<circle cx="440.6" cy="1768.4" r="5" fill="none" stroke-width="1" stroke="rgb(0,255,0)" />
	<circle cx="466.7" cy="1816.8" r="5" fill="none" stroke-width="1" stroke="rgb(0,255,0)" />
	<circle cx="496" cy="1866.2" r="5" fill="none" stroke-width="1" stroke="rgb(0,255,0)" />
	<circle cx="527.1" cy="1913.4" r="5" fill="none" stroke-width="1" stroke="rgb(0,255,0)" />
	<circle cx="559.2" cy="1955.4" r="5" fill="none" stroke-width="1" stroke="rgb(0,255,0)" />
	<circle cx="594.5" cy="1989" r="5" fill="none" stroke-width="1" stroke="rgb(0,255,0)" />
	<circle cx="630.9" cy="2018.7" r="5" fill="none" stroke-width="1" stroke="rgb(0,255,0)" />
	<circle cx="670.6" cy="2041" r="5" fill="none" stroke-width="1" stroke="rgb(0,255,0)" />
	<circle cx="711.2" cy="2056.5" r="5" fill="none" stroke-width="1" stroke="rgb(0,255,0)" />
	<circle cx="753.207" cy="2063.58" r="5" fill="none" stroke-width="1" stroke="rgb(0,255,0)" />
</svg>
